<?xml version="1.0" encoding="UTF-8" ?>
<!DOCTYPE svg PUBLIC "-//W3C//DTD SVG 1.1//EN" "http://www.w3.org/Graphics/SVG/1.1/DTD/svg11.dtd">
<svg width="341pt" height="348pt" viewBox="0 0 341 348" version="1.1" xmlns="http://www.w3.org/2000/svg">
<g id="#edededff">
</g>
<g id="#fefefeff">
</g>
<g id="#015987ff">
<path fill="#fff" opacity="1.00" d=" M 108.28 15.72 C 116.01 8.78 126.63 5.13 136.99 6.03 C 147.79 6.99 158.04 12.80 164.41 21.57 C 169.04 27.68 171.44 35.29 171.80 42.90 C 186.85 43.10 201.91 42.77 216.96 42.98 C 223.93 43.21 231.01 42.29 237.86 43.98 C 248.43 46.96 257.60 54.84 261.35 65.26 C 263.73 71.48 263.54 78.19 263.47 84.73 C 263.46 91.57 263.47 98.41 263.47 105.25 C 263.47 111.75 263.47 118.25 263.47 124.76 C 263.48 130.94 263.46 137.12 263.47 143.30 C 254.05 143.11 244.64 143.15 235.22 143.12 C 235.14 122.42 235.18 101.73 235.21 81.03 C 235.19 78.78 235.00 76.54 234.63 74.32 C 233.34 73.12 232.09 71.42 230.15 71.45 C 216.94 71.19 203.72 71.44 190.50 71.44 C 190.76 71.66 191.28 72.09 191.54 72.31 C 195.24 76.20 198.38 80.70 200.18 85.79 C 200.84 88.37 201.24 91.00 201.61 93.64 C 156.54 93.82 111.47 93.64 66.40 93.72 C 65.83 90.82 66.53 87.88 67.50 85.14 C 67.79 84.28 68.10 83.42 68.41 82.57 C 70.43 78.94 72.78 75.47 75.69 72.49 C 76.05 72.12 76.41 71.75 76.77 71.38 C 63.39 71.46 50.00 71.13 36.63 71.55 C 34.84 71.68 33.76 73.40 32.58 74.56 C 31.91 91.70 32.54 108.87 32.31 126.03 C 32.32 185.35 32.32 244.68 32.30 304.01 C 32.33 305.78 32.38 307.56 32.53 309.33 C 35.87 314.68 42.89 312.08 48.08 312.65 C 54.72 312.65 61.36 312.65 68.00 312.65 C 74.71 312.65 81.42 312.65 88.14 312.66 C 94.76 312.65 101.38 312.65 108.00 312.66 C 113.43 312.65 118.85 312.67 124.28 312.65 C 124.11 322.08 124.13 331.51 124.11 340.95 C 96.73 341.16 69.35 341.02 41.97 341.06 C 37.93 341.07 33.85 341.00 29.90 340.08 C 20.87 337.85 12.83 331.82 8.32 323.67 C 6.94 321.20 6.02 318.51 4.88 315.92 C 3.96 310.67 4.00 305.34 4.07 300.03 C 4.07 228.34 4.07 156.65 4.07 84.95 C 4.01 79.32 3.91 73.65 4.86 68.08 C 5.32 67.10 5.74 66.11 6.14 65.11 C 6.81 63.47 7.54 61.87 8.26 60.26 C 12.20 53.65 18.23 48.40 25.29 45.35 C 30.00 43.64 34.99 42.84 40.00 42.93 C 58.50 43.08 77.01 42.77 95.51 42.96 C 95.92 36.74 97.49 30.59 100.61 25.16 C 102.64 21.63 105.24 18.43 108.28 15.72 M 127.69 29.86 C 121.19 32.51 117.53 39.58 118.18 46.44 C 119.36 51.82 122.96 56.44 128.00 58.72 C 131.73 59.76 135.83 60.12 139.45 58.51 C 146.21 55.89 150.69 48.07 148.74 40.94 C 147.27 31.75 136.14 25.86 127.69 29.86 Z" />
<path fill="#fff" opacity="1.00" d=" M 288.35 139.49 C 290.94 137.31 293.56 135.17 296.17 133.02 C 300.23 136.62 303.76 140.75 307.64 144.53 C 307.85 144.74 308.26 145.15 308.47 145.35 C 314.90 151.75 321.10 158.37 327.62 164.67 C 327.80 164.85 328.14 165.20 328.31 165.38 C 329.87 167.01 331.38 168.69 332.92 170.36 C 331.00 172.30 329.08 174.24 327.15 176.18 C 324.48 178.85 321.81 181.53 319.13 184.20 C 315.16 188.16 311.20 192.12 307.25 196.09 C 304.52 198.81 301.80 201.53 299.08 204.26 C 295.11 208.21 291.15 212.18 287.18 216.14 C 284.49 218.84 281.79 221.54 279.10 224.23 C 275.14 228.18 271.19 232.12 267.25 236.08 C 264.53 238.80 261.81 241.51 259.10 244.23 C 255.11 248.21 251.12 252.20 247.13 256.19 C 244.46 258.87 241.79 261.55 239.10 264.22 C 235.15 268.17 231.20 272.12 227.26 276.08 C 224.53 278.80 221.80 281.53 219.07 284.26 C 215.10 288.22 211.14 292.19 207.17 296.15 C 204.49 298.84 201.81 301.53 199.12 304.21 C 195.16 308.16 191.21 312.10 187.27 316.06 C 184.54 318.79 181.80 321.51 179.09 324.26 C 176.81 326.55 174.50 328.81 172.13 331.01 C 170.89 329.79 169.66 328.57 168.43 327.35 C 167.50 326.43 166.58 325.51 165.66 324.59 C 159.94 318.83 154.20 313.09 148.44 307.37 C 147.51 306.44 146.60 305.51 145.70 304.56 C 140.04 298.48 134.01 292.75 128.18 286.84 C 127.50 286.16 126.83 285.49 126.15 284.82 C 120.17 278.82 114.17 272.83 108.18 266.84 C 107.51 266.17 106.84 265.50 106.17 264.83 C 100.17 258.83 94.17 252.82 88.16 246.82 C 87.49 246.15 86.82 245.48 86.15 244.81 C 83.17 241.84 80.20 238.86 77.24 235.88 C 80.71 232.38 84.21 228.90 87.66 225.39 C 87.84 225.21 88.20 224.84 88.38 224.66 C 94.85 218.26 101.29 211.84 107.68 205.36 C 107.86 205.19 108.21 204.83 108.39 204.66 C 114.80 198.31 121.20 191.96 127.51 185.51 L 127.84 185.59 L 127.98 185.75 C 143.08 202.16 158.25 218.52 173.23 235.04 C 177.14 232.01 180.91 228.82 184.71 225.65 C 185.92 224.66 187.13 223.65 188.33 222.64 C 208.33 206.01 228.32 189.37 248.33 172.76 C 251.36 170.26 254.37 167.73 257.38 165.21 C 261.01 162.24 264.62 159.26 268.20 156.24 C 272.60 152.61 276.94 148.92 281.35 145.30 C 283.69 143.38 286.02 141.44 288.35 139.49 Z" />
</g>
<g id="#eceeedff">
</g>
<g id="#eceeefff">
</g>
<g id="#fdfefeff">
</g>
</svg>
