<?xml version="1.0" encoding="UTF-8" ?>
<!DOCTYPE svg PUBLIC "-//W3C//DTD SVG 1.1//EN" "http://www.w3.org/Graphics/SVG/1.1/DTD/svg11.dtd">
<svg width="188pt" height="115pt" viewBox="0 0 188 115" version="1.1" xmlns="http://www.w3.org/2000/svg">
<g id="#ffffffff">
</g>
<g id="#000000ff">
<path fill="#fff" opacity="1.00" d=" M 23.13 61.25 C 33.76 46.79 44.14 32.13 54.81 17.69 C 64.73 17.72 74.65 17.75 84.57 17.68 C 84.66 34.32 84.68 50.96 84.56 67.60 C 87.47 67.76 90.38 67.74 93.30 67.71 C 93.29 72.14 93.30 76.57 93.29 81.00 C 90.41 81.00 87.52 81.00 84.63 81.00 C 84.65 86.31 84.57 91.61 84.69 96.92 C 77.84 97.10 70.98 96.96 64.13 97.00 C 64.14 91.70 64.12 86.40 64.15 81.10 C 50.48 80.86 36.80 81.08 23.13 80.99 C 23.14 74.41 23.13 67.83 23.13 61.25 M 40.51 67.65 C 48.33 67.80 56.15 67.66 63.98 67.73 C 64.34 59.49 64.02 51.24 64.14 43.00 C 64.07 40.64 64.46 38.19 63.54 35.94 C 55.90 46.54 48.14 57.04 40.51 67.65 Z" />
<path fill="#fff" opacity="1.00" d=" M 96.70 17.71 C 118.29 17.71 139.87 17.72 161.45 17.71 C 161.45 23.14 161.45 28.57 161.45 34.00 C 153.76 34.08 146.06 33.85 138.37 34.12 C 138.55 55.08 138.40 76.04 138.45 97.00 C 131.41 96.97 124.37 97.06 117.34 96.95 C 117.42 75.97 117.35 54.98 117.37 34.00 C 110.48 33.99 103.59 34.01 96.71 34.00 C 96.70 28.57 96.70 23.14 96.70 17.71 Z" />
</g>
</svg>
