<?xml version="1.0" encoding="UTF-8" ?>
<!DOCTYPE svg PUBLIC "-//W3C//DTD SVG 1.1//EN" "http://www.w3.org/Graphics/SVG/1.1/DTD/svg11.dtd">
<svg width="201pt" height="100pt" viewBox="0 0 201 100" version="1.1" xmlns="http://www.w3.org/2000/svg">
<g id="#050505ff">
</g>
<g id="#dc143cff">
<path fill="#ffffff" opacity="1.00" d=" M 88.37 9.49 C 92.02 7.58 97.04 10.80 96.27 15.03 C 96.29 19.13 91.00 21.39 87.78 19.19 C 84.17 17.17 84.50 11.04 88.37 9.49 Z" />
<path fill="#ffffff" opacity="1.00" d=" M 123.00 10.43 C 126.09 9.96 129.18 9.45 132.27 8.93 C 132.28 24.38 132.27 39.82 132.27 55.27 C 124.42 56.87 115.22 58.87 108.18 53.85 C 100.92 48.03 100.64 36.61 105.00 28.97 C 108.62 22.81 116.81 21.77 123.02 24.17 C 122.98 19.59 123.00 15.01 123.00 10.43 M 114.76 31.75 C 112.50 32.94 111.81 35.70 111.58 38.04 C 111.32 41.35 111.73 45.26 114.46 47.52 C 116.83 49.53 120.13 48.88 122.97 48.84 C 123.02 43.22 123.00 37.61 122.98 31.99 C 120.33 31.38 117.34 30.27 114.76 31.75 Z" />
<path fill="#ffffff" opacity="1.00" d=" M 7.45 14.01 C 10.63 14.00 13.82 14.00 17.00 14.00 C 17.00 22.00 17.01 30.00 16.97 37.99 C 17.00 40.80 17.04 43.83 18.71 46.23 C 22.17 51.19 31.80 49.34 32.26 42.95 C 32.75 33.32 32.31 23.65 32.45 14.01 C 35.72 14.00 39.00 14.00 42.27 14.00 C 42.26 21.67 42.29 29.33 42.27 37.00 C 42.17 41.37 42.13 46.01 39.83 49.89 C 37.45 54.05 32.76 56.37 28.11 56.83 C 22.61 57.46 16.40 56.80 12.18 52.87 C 8.64 49.64 7.45 44.67 7.45 40.05 C 7.44 31.37 7.48 22.69 7.45 14.01 Z" />
<path fill="#ffffff" opacity="1.00" d=" M 50.47 24.72 C 57.14 23.35 64.30 21.88 70.98 24.01 C 75.58 25.53 77.91 30.44 78.13 35.00 C 78.49 41.99 78.17 49.00 78.27 56.00 C 75.18 56.00 72.09 56.00 69.00 56.00 C 69.00 50.66 68.99 45.31 69.03 39.97 C 68.98 37.42 69.17 34.63 67.71 32.40 C 65.57 30.36 62.42 31.15 59.78 31.20 C 59.80 39.47 59.78 47.73 59.79 56.00 C 56.68 56.00 53.56 56.00 50.45 55.99 C 50.47 45.57 50.44 35.15 50.47 24.72 Z" />
<path fill="#ffffff" opacity="1.00" d=" M 150.40 23.55 C 157.31 21.53 165.64 24.57 168.70 31.31 C 172.16 38.73 171.13 49.07 164.22 54.19 C 158.67 58.07 150.48 58.09 145.09 53.89 C 135.16 46.08 137.45 26.79 150.40 23.55 M 152.35 31.47 C 147.67 33.94 147.56 40.50 149.13 44.92 C 150.38 49.08 156.24 50.47 159.14 47.21 C 161.71 43.89 161.71 39.16 160.58 35.29 C 159.65 31.86 155.58 29.95 152.35 31.47 Z" />
<path fill="#ffffff" opacity="1.00" d=" M 180.85 24.86 C 186.43 21.78 193.14 23.00 199.01 24.49 C 198.46 26.76 197.91 29.02 197.36 31.29 C 193.62 30.25 189.62 29.37 185.85 30.83 C 185.84 31.62 185.80 33.22 185.78 34.02 C 190.14 36.73 195.64 37.92 198.93 42.13 C 201.49 46.21 200.72 52.86 196.02 55.09 C 189.66 58.16 182.12 57.27 175.59 55.19 C 176.10 52.84 176.62 50.48 177.12 48.13 C 181.18 49.28 185.51 50.78 189.73 49.60 C 191.50 49.21 191.76 46.64 190.21 45.78 C 186.62 43.21 181.92 42.42 178.81 39.15 C 174.95 35.13 175.85 27.56 180.85 24.86 Z" />
<path fill="#ffffff" opacity="1.00" d=" M 86.21 24.00 C 89.32 24.00 92.43 24.00 95.55 24.01 C 95.54 34.67 95.54 45.33 95.55 55.99 C 92.43 56.00 89.32 56.00 86.21 56.00 C 86.21 45.33 86.21 34.67 86.21 24.00 Z" />
</g>
<g id="#ffffffff">
<path fill="#ffffff" opacity="1.00" d=" M 52.31 68.28 C 52.99 68.20 54.33 68.06 55.00 67.98 C 55.10 73.34 54.79 78.72 55.13 84.06 C 55.92 85.41 56.97 86.62 57.33 88.19 C 55.33 88.00 52.74 87.73 52.53 85.19 C 52.03 79.57 52.46 73.91 52.31 68.28 Z" />
<path fill="#ffffff" opacity="1.00" d=" M 5.18 74.41 C 8.52 74.19 12.60 72.99 15.30 75.66 C 18.44 78.74 17.98 84.76 14.43 87.38 C 12.40 88.49 9.99 87.81 7.82 87.65 C 7.84 89.43 7.85 91.21 7.86 93.00 C 7.18 93.00 5.83 93.00 5.15 93.00 C 5.17 86.80 5.12 80.61 5.18 74.41 M 7.82 76.28 C 7.85 79.22 7.86 82.17 7.84 85.12 C 9.31 85.32 11.08 86.71 12.45 85.55 C 15.01 84.08 14.90 80.58 14.06 78.13 C 12.80 75.95 10.02 75.85 7.82 76.28 Z" />
<path fill="#ffffff" opacity="1.00" d=" M 24.25 74.24 C 28.24 72.77 32.84 75.72 32.84 80.03 C 33.61 84.08 30.42 88.76 25.99 88.02 C 18.88 88.03 17.84 76.30 24.25 74.24 M 23.87 76.67 C 22.43 79.46 22.45 82.52 23.86 85.33 C 25.61 85.90 27.41 85.94 29.10 85.17 C 30.42 82.49 30.41 79.50 29.10 76.83 C 27.41 76.06 25.62 76.11 23.87 76.67 Z" />
<path fill="#ffffff" opacity="1.00" d=" M 36.18 74.47 C 38.71 74.11 41.28 73.97 43.84 73.97 C 43.87 74.59 43.94 75.81 43.97 76.42 C 42.26 76.12 40.52 76.03 38.81 76.37 C 38.87 80.25 38.85 84.12 38.85 88.00 C 38.17 88.00 36.83 88.00 36.15 88.00 C 36.16 83.49 36.13 78.98 36.18 74.47 Z" />
<path fill="#ffffff" opacity="1.00" d=" M 60.22 74.19 C 62.90 74.25 66.36 73.13 68.38 75.46 C 70.25 79.25 69.20 83.63 69.45 87.68 C 66.47 87.80 63.30 88.54 60.45 87.40 C 58.41 86.36 59.21 83.70 58.88 81.88 C 61.05 79.85 64.03 79.88 66.81 80.01 C 66.62 79.30 66.23 77.88 66.03 77.17 C 64.70 75.34 62.18 76.13 60.40 76.73 C 60.36 76.09 60.26 74.83 60.22 74.19 M 60.95 83.83 C 61.47 84.38 62.50 85.47 63.01 86.01 C 63.90 86.00 65.67 85.98 66.55 85.97 C 66.50 84.57 66.45 83.16 66.38 81.75 C 64.39 81.95 62.44 82.41 60.95 83.83 Z" />
<path fill="#ffffff" opacity="1.00" d=" M 83.24 74.22 C 85.33 73.77 87.99 73.70 89.46 75.54 C 91.19 77.21 90.78 79.83 91.12 82.00 C 87.88 82.00 84.63 81.96 81.39 82.08 C 82.25 86.35 86.87 86.44 90.23 85.32 C 90.55 88.97 86.37 87.91 84.03 87.91 C 77.51 87.00 77.32 76.14 83.24 74.22 M 81.39 79.93 C 83.81 80.01 86.23 80.02 88.66 79.94 C 88.01 78.38 87.60 76.39 85.66 75.99 C 83.33 75.87 82.12 78.08 81.39 79.93 Z" />
<path fill="#ffffff" opacity="1.00" d=" M 95.52 74.49 C 97.96 73.52 100.67 74.10 103.13 74.67 C 101.96 78.18 98.46 74.78 96.32 76.89 C 96.38 80.32 101.09 79.76 102.80 82.15 C 103.10 83.96 103.54 86.47 101.55 87.47 C 98.86 88.44 95.95 87.90 93.20 87.57 C 93.38 87.01 93.74 85.89 93.92 85.33 C 96.16 85.63 98.60 86.68 100.62 85.08 C 100.47 81.32 94.83 82.23 93.75 78.88 C 92.89 77.28 94.14 75.35 95.52 74.49 Z" />
<path fill="#ffffff" opacity="1.00" d=" M 106.18 74.41 C 109.54 74.19 113.64 72.99 116.33 75.69 C 119.43 78.79 118.97 84.77 115.43 87.38 C 113.40 88.49 110.99 87.81 108.82 87.65 C 108.84 89.43 108.85 91.21 108.86 93.00 C 108.18 93.00 106.83 93.00 106.15 93.00 C 106.17 86.80 106.12 80.61 106.18 74.41 M 108.82 76.28 C 108.85 79.22 108.85 82.17 108.84 85.12 C 110.31 85.32 112.10 86.72 113.46 85.54 C 116.01 84.07 115.90 80.56 115.05 78.12 C 113.79 75.95 111.01 75.85 108.82 76.28 Z" />
<path fill="#ffffff" opacity="1.00" d=" M 125.18 74.24 C 127.27 73.77 129.94 73.68 131.44 75.51 C 133.20 77.18 132.77 79.82 133.12 82.00 C 129.88 82.00 126.63 81.96 123.39 82.08 C 124.26 86.35 128.88 86.46 132.25 85.32 C 132.52 88.98 128.37 87.91 126.02 87.91 C 119.53 86.99 119.32 76.23 125.18 74.24 M 123.39 79.93 C 125.81 80.01 128.23 80.02 130.66 79.94 C 130.01 78.33 129.55 76.35 127.57 75.95 C 125.29 76.00 124.12 78.06 123.39 79.93 Z" />
<path fill="#ffffff" opacity="1.00" d=" M 136.34 74.48 C 139.06 74.06 141.82 73.95 144.57 74.10 C 144.42 74.69 144.13 75.88 143.98 76.47 C 142.40 76.29 140.19 75.17 139.09 76.89 C 138.85 80.59 139.05 84.30 139.00 88.00 C 138.33 88.00 136.99 88.00 136.32 88.00 C 136.33 83.49 136.30 78.98 136.34 74.48 Z" />
<path fill="#ffffff" opacity="1.00" d=" M 147.21 74.20 C 149.88 74.25 153.32 73.14 155.35 75.43 C 157.27 79.20 156.19 83.63 156.45 87.69 C 153.47 87.80 150.30 88.54 147.45 87.40 C 145.42 86.37 146.21 83.72 145.87 81.90 C 148.03 79.86 151.02 79.87 153.81 80.01 C 154.08 76.26 150.21 75.14 147.41 76.74 C 147.36 76.10 147.26 74.83 147.21 74.20 M 148.30 82.85 C 148.03 85.94 151.28 86.19 153.54 86.15 C 153.50 84.69 153.45 83.22 153.39 81.75 C 151.68 82.05 149.98 82.42 148.30 82.85 Z" />
<path fill="#ffffff" opacity="1.00" d=" M 160.33 74.40 C 163.24 74.21 166.36 73.43 169.17 74.56 C 172.99 77.89 170.97 83.58 171.45 88.00 C 170.72 88.00 169.26 88.00 168.53 88.00 C 168.38 84.34 168.99 80.58 168.10 76.99 C 166.74 75.96 164.91 75.70 163.30 76.26 C 162.64 80.13 163.14 84.09 163.00 88.00 C 162.33 88.00 160.99 88.00 160.32 87.99 C 160.33 83.46 160.31 78.93 160.33 74.40 Z" />
<path fill="#ffffff" opacity="1.00" d=" M 175.00 74.00 C 178.41 74.00 181.83 73.95 185.24 74.11 C 183.91 78.78 179.64 81.79 177.37 85.99 C 179.91 86.00 182.46 86.00 185.00 86.00 C 185.00 86.50 185.00 87.50 185.00 88.00 C 181.41 87.99 177.82 88.04 174.23 87.92 C 175.26 83.20 178.88 79.67 181.76 75.99 C 179.50 76.00 177.25 76.00 175.00 76.00 C 175.00 75.50 175.00 74.50 175.00 74.00 Z" />
<path fill="#ffffff" opacity="1.00" d=" M 188.41 74.17 C 191.41 74.15 196.07 72.98 197.31 76.76 C 198.07 80.35 197.55 84.07 197.66 87.71 C 194.73 87.77 191.57 88.57 188.78 87.40 C 186.60 86.49 187.34 83.83 187.07 81.98 C 189.29 79.78 192.43 79.88 195.32 80.04 C 194.72 78.57 194.43 76.74 192.82 75.99 C 191.39 76.07 189.98 76.28 188.58 76.61 C 188.54 76.00 188.46 74.78 188.41 74.17 M 189.43 83.95 C 190.12 86.41 193.05 85.82 194.99 86.06 C 194.99 84.78 194.90 83.51 194.72 82.24 C 192.86 81.66 190.35 82.03 189.43 83.95 Z" />
</g>
</svg>
