<?xml version="1.0" encoding="UTF-8" ?>
<!DOCTYPE svg PUBLIC "-//W3C//DTD SVG 1.1//EN" "http://www.w3.org/Graphics/SVG/1.1/DTD/svg11.dtd">
<svg width="151pt" height="125pt" viewBox="0 0 151 125" version="1.1" xmlns="http://www.w3.org/2000/svg">
<g id="#cd0e54ff">
</g>
<g id="#fdfdfdff">
<path fill="rgba(184, 9, 44, 0.99)" opacity="1.00" d=" M 38.78 32.71 C 46.49 33.56 55.03 35.44 60.04 41.92 C 63.18 45.44 64.72 50.02 64.99 54.68 C 69.20 50.76 67.66 43.85 71.86 39.89 C 75.82 35.70 83.05 34.23 87.66 38.21 C 89.27 39.26 89.30 41.22 89.32 42.94 C 91.49 43.10 93.67 43.36 95.70 44.16 C 92.41 45.10 88.27 45.02 86.03 48.04 C 83.50 53.70 87.30 59.37 88.10 64.96 C 89.74 71.79 87.16 79.30 82.05 84.02 C 78.26 87.54 72.94 88.44 68.01 89.12 C 60.51 90.17 52.93 89.55 45.43 88.91 C 55.57 85.72 67.32 86.75 76.18 80.18 C 80.68 77.03 81.53 70.56 78.38 66.15 C 67.19 72.11 55.72 77.88 45.97 86.10 C 49.74 77.84 55.81 70.20 64.20 66.34 C 68.12 64.40 72.54 64.06 76.82 63.51 C 70.50 61.28 63.16 59.74 56.89 62.96 C 49.51 66.99 45.38 75.16 44.11 83.23 C 41.12 72.47 37.58 61.29 39.97 50.03 C 41.50 44.29 40.90 38.21 38.78 32.71 M 83.00 42.27 C 82.61 43.85 83.24 44.36 84.89 43.81 C 85.28 42.22 84.65 41.70 83.00 42.27 M 69.56 58.45 C 72.47 59.57 75.40 60.66 78.31 61.79 C 75.08 55.81 77.05 48.79 80.50 43.40 C 73.63 45.04 70.66 52.17 69.56 58.45 Z" />
</g>
<g id="#3a2812ff">
</g>
</svg>
